<svg width="80" height="80" viewBox="0 0 80 80" fill="none" xmlns="http://www.w3.org/2000/svg">
<rect width="80" height="80" fill="white"/>
<g clip-path="url(#clip0_595_36)">
<path d="M24.0805 33.0063C24.0806 34.1027 24.0891 35.1306 24.0787 36.1583C24.0639 37.6024 23.0121 38.2398 21.7448 37.5214C19.0636 36.0015 16.4085 34.4364 13.7403 32.8938C13.123 32.537 12.4933 32.2012 11.8745 31.847C11.0054 31.3496 10.5789 30.6428 10.5886 29.6043C10.6209 26.1329 10.6493 22.6597 10.5673 19.1898C10.5302 17.6206 11.6254 16.7907 13.1718 17.6763C15.9664 19.2769 18.7463 20.9025 21.5327 22.517C21.9904 22.7822 22.4504 23.0437 22.9086 23.308C23.7454 23.7907 24.1063 24.5073 24.0964 25.4691C24.0709 27.9584 24.0832 30.4482 24.0805 33.0063Z" fill="black"/>
<path d="M10.5936 57.5526C10.5935 55.9539 10.5883 54.4237 10.5945 52.8935C10.6002 51.5036 11.6471 50.835 12.8832 51.5182C15.1176 52.753 17.308 54.0659 19.516 55.3477C20.5703 55.9597 21.6111 56.5958 22.6795 57.1826C23.6658 57.7242 24.1172 58.4947 24.1049 59.6318C24.0683 63.0344 24.0943 66.4376 24.0893 69.8405C24.0867 71.6056 23.0684 72.1982 21.5221 71.319C18.283 69.4773 15.0554 67.6159 11.8187 65.7703C10.9854 65.2952 10.5656 64.6369 10.5841 63.6504C10.6218 61.6413 10.5942 59.631 10.5936 57.5526Z" fill="black"/>
<path d="M65.118 52.658C65.8826 52.2257 66.5838 51.778 67.3307 51.4249C68.4283 50.9061 69.5036 51.552 69.5094 52.752C69.527 56.4052 69.5037 60.0587 69.4954 63.7121C69.4931 64.7298 68.8843 65.3277 68.0564 65.8007C65.3011 67.375 62.5543 68.9637 59.8045 70.5474C59.2468 70.8686 58.7065 71.2244 58.1297 71.5074C56.9857 72.0686 56.0234 71.47 56.021 70.2046C56.0139 66.5055 56.031 62.8063 56.0113 59.1074C56.0061 58.1427 56.5538 57.607 57.3086 57.1715C59.6991 55.7924 62.0878 54.4102 64.4773 53.0293C64.6764 52.9142 64.8759 52.7996 65.118 52.658Z" fill="black"/>
<path d="M20.0154 9.92146C21.1933 9.23838 22.3319 8.58795 23.4562 7.914C24.4687 7.30701 25.442 7.34392 26.454 7.9404C29.4461 9.70405 32.4534 11.4424 35.4542 13.1916C36.9367 14.0558 36.9824 15.2764 35.5139 16.1435C32.4839 17.9326 29.4226 19.6696 26.3891 21.4529C25.3672 22.0536 24.4202 22.0373 23.4018 21.4342C20.4532 19.688 17.4823 17.9787 14.5208 16.2536C14.3818 16.1727 14.248 16.0825 14.1149 15.9922C12.8809 15.1557 12.8888 14.0457 14.1712 13.2889C16.0928 12.1551 18.0359 11.0571 20.0154 9.92146Z" fill="black"/>
<path d="M20.397 53.6549C18.3373 52.4319 16.3141 51.2456 14.3066 50.0339C12.9779 49.2319 12.9873 48.0584 14.3333 47.2632C17.3022 45.5092 20.2952 43.795 23.2553 42.0265C24.4541 41.3103 25.5461 41.3275 26.7451 42.0534C29.6946 43.8393 32.6855 45.5582 35.6567 47.3092C37.0402 48.1246 37.0965 49.1566 35.7313 49.9721C32.5344 51.8818 29.3089 53.7447 26.0872 55.6136C25.3342 56.0504 24.5503 56.0528 23.7842 55.612C22.6685 54.97 21.5548 54.3247 20.397 53.6549Z" fill="black"/>
<path d="M40.9425 64.4996C40.7907 64.1193 40.8045 63.7755 40.8054 63.4326C40.8128 60.4163 40.8145 57.4 40.83 54.3837C40.8331 53.7909 40.8836 53.1981 40.92 52.6057C40.9827 51.5833 41.953 50.9526 42.8908 51.3845C43.6622 51.7398 44.3908 52.1893 45.1262 52.6176C47.5918 54.0536 50.0365 55.5259 52.5212 56.9286C53.6812 57.5835 54.2233 58.4208 54.1893 59.7996C54.1065 63.1567 54.156 66.5172 54.1687 69.8763C54.1713 70.5545 54.071 71.1593 53.4187 71.5255C52.7626 71.8937 52.179 71.6465 51.5993 71.3082C48.5188 69.5104 45.4357 67.717 42.351 65.9263C41.765 65.5862 41.2164 65.2168 40.9425 64.4996Z" fill="black"/>
<path d="M61.229 44.615C62.7425 45.4997 64.2125 46.359 65.6814 47.2202C67.1558 48.0847 67.1855 49.2301 65.7188 50.0865C62.6193 51.8963 59.5031 53.6781 56.394 55.4717C55.5484 55.9595 54.7055 56.0085 53.8415 55.5006C50.6679 53.635 47.4848 51.7853 44.3153 49.913C43.023 49.1497 42.9793 48.1529 44.2551 47.394C47.4586 45.4887 50.6879 43.6257 53.9204 41.7688C54.7077 41.3166 55.5554 41.2965 56.3618 41.7634C57.9746 42.6972 59.5778 43.6472 61.229 44.615Z" fill="black"/>
<path d="M62.0452 11.0333C63.3013 11.7655 64.5154 12.4696 65.7217 13.1867C65.9968 13.3502 66.27 13.5324 66.5006 13.751C67.1208 14.3388 67.1107 15.0882 66.4811 15.6685C65.8317 16.2671 65.017 16.617 64.2664 17.0615C61.9702 18.4211 59.6347 19.7188 57.3792 21.1412C55.9937 22.0149 54.7777 22.089 53.3493 21.2035C50.6134 19.5075 47.7882 17.9535 45.0162 16.3136C43.1336 15.1998 43.1299 14.2145 44.9941 13.1228C47.9324 11.4021 50.8932 9.71901 53.8275 7.99161C54.8457 7.39221 55.7897 7.3667 56.8118 7.98615C58.5233 9.02339 60.2691 10.005 62.0452 11.0333Z" fill="black"/>
<path d="M54.1773 24.3933C54.3414 24.8444 54.3111 25.2593 54.3114 25.6691C54.3136 29.097 54.3067 32.525 54.3157 35.953C54.3174 36.6152 54.3003 37.2563 53.6248 37.622C52.9553 37.9845 52.3733 37.6627 51.8097 37.3333C49.1276 35.766 46.467 34.1616 43.7637 32.6311C40.6091 30.8451 41.1423 30.8975 41.0458 28.0381C40.9464 25.0906 40.9971 22.1436 40.9627 19.1965C40.9424 17.4535 41.9973 16.8053 43.5313 17.6731C46.7365 19.4862 49.9091 21.3561 53.0889 23.2129C53.5481 23.4811 53.9581 23.8202 54.1773 24.3933Z" fill="black"/>
<path d="M63.6121 19.6277C64.7284 18.9755 65.8009 18.3487 66.8739 17.7227C67.2543 17.5008 67.6419 17.3095 68.1043 17.324C68.7894 17.3455 69.2474 17.6556 69.4026 18.328C69.4687 18.6145 69.5021 18.9146 69.5027 19.2087C69.5096 22.5433 69.4772 25.8784 69.5231 29.2124C69.5399 30.4337 69.0293 31.2525 68.0101 31.8467C64.97 33.6191 61.9389 35.4067 58.8927 37.1688C58.2865 37.5195 57.6408 37.9824 56.8997 37.5267C56.1701 37.0782 56.1763 36.3106 56.1761 35.5703C56.175 32.2585 56.2037 28.9463 56.1576 25.6352C56.1418 24.4965 56.5785 23.7154 57.5448 23.1577C59.5568 21.9966 61.5611 20.8224 63.6121 19.6277Z" fill="black"/>
<path d="M37.9025 65.7743C34.7519 67.5947 31.6449 69.3898 28.5355 71.1807C28.2574 71.3409 27.9759 71.5101 27.6742 71.6126C26.9102 71.872 26.0905 71.3596 25.9758 70.5691C25.9464 70.367 25.9563 70.1588 25.9549 69.9534C25.9309 66.4835 25.9176 63.0136 25.8787 59.544C25.8674 58.5423 26.2093 57.8046 27.1184 57.281C30.368 55.4098 33.6146 53.5319 36.8239 51.5942C38.146 50.796 39.1791 51.8422 39.1817 52.9191C39.1905 56.5509 39.1879 60.1828 39.1777 63.8147C39.1752 64.7002 38.6844 65.3084 37.9025 65.7743Z" fill="black"/>
<path d="M39.2 20.1183C39.1979 23.1313 39.1305 26.0782 39.2215 29.0203C39.266 30.4579 38.664 31.3353 37.4815 32.0086C34.6444 33.624 31.8254 35.2704 28.9985 36.9033C28.6006 37.1332 28.2147 37.3912 27.7966 37.5775C26.8443 38.002 25.9653 37.4884 25.9602 36.4522C25.941 32.5717 25.9582 28.6909 25.9719 24.8103C25.975 23.925 26.6227 23.5036 27.2952 23.1156C29.665 21.7482 32.0359 20.3828 34.404 19.0126C35.1801 18.5635 35.9355 18.0778 36.7238 17.6514C38.0875 16.9137 39.1897 17.5653 39.2006 19.0913C39.2028 19.4109 39.2003 19.7305 39.2 20.1183Z" fill="black"/>
<path d="M40.8035 33.1163C43.423 34.4812 45.8677 36.0376 48.39 37.4616C49.1707 37.9024 49.95 38.3479 50.7082 38.8253C51.9174 39.5868 51.9322 40.6406 50.7061 41.4041C49.341 42.2541 47.9302 43.0319 46.5393 43.8413C44.8504 44.8241 43.1497 45.7878 41.4771 46.7972C40.4331 47.4272 39.4928 47.3766 38.4454 46.7428C35.6334 45.0413 32.7804 43.4063 29.9379 41.7547C27.9731 40.6131 27.9738 39.6945 29.9442 38.5538C32.8095 36.8952 35.669 35.2269 38.5324 33.565C39.2182 33.1669 39.9168 32.8123 40.8035 33.1163Z" fill="black"/>
</g>
<defs>
<clipPath id="clip0_595_36">
<rect width="59" height="65" fill="white" transform="translate(10.5 7.5)"/>
</clipPath>
</defs>
</svg>
