<svg width="1024" height="1024" viewBox="0 0 1024 1024" fill="none" xmlns="http://www.w3.org/2000/svg">
<g clip-path="url(#clip0_595_36)">
<path d="M324.746 428.937C324.747 441.958 324.848 454.166 324.724 466.372C324.551 483.524 312.179 491.095 297.272 482.562C265.733 464.51 234.502 445.921 203.117 427.6C195.857 423.362 188.45 419.374 181.17 415.168C170.947 409.26 165.93 400.865 166.044 388.531C166.425 347.302 166.759 306.051 165.794 264.839C165.358 246.202 178.241 236.344 196.43 246.863C229.302 265.873 262.002 285.18 294.777 304.356C300.161 307.506 305.571 310.611 310.961 313.751C320.804 319.483 325.049 327.995 324.933 339.417C324.633 368.983 324.778 398.554 324.746 428.937Z" fill="black"/>
<path d="M166.101 720.472C166.1 701.484 166.039 683.31 166.112 665.136C166.179 648.628 178.493 640.688 193.033 648.802C219.316 663.468 245.081 679.061 271.052 694.284C283.454 701.553 295.697 709.108 308.264 716.077C319.866 722.51 325.175 731.661 325.031 745.166C324.601 785.578 324.906 825.998 324.848 866.415C324.817 887.379 312.839 894.417 294.65 883.974C256.55 862.101 218.584 839.993 180.511 818.073C170.709 812.43 165.772 804.612 165.989 792.895C166.433 769.033 166.108 745.157 166.101 720.472Z" fill="black"/>
<path d="M807.455 662.337C816.448 657.203 824.696 651.885 833.482 647.692C846.392 641.53 859.04 649.201 859.109 663.453C859.316 706.843 859.042 750.235 858.944 793.626C858.917 805.713 851.756 812.814 842.018 818.432C809.609 837.13 777.298 855.999 744.954 874.808C738.393 878.623 732.038 882.849 725.253 886.21C711.796 892.875 700.477 885.766 700.449 870.737C700.366 826.803 700.566 782.868 700.334 738.936C700.274 727.479 706.716 721.116 715.594 715.944C743.713 699.564 771.811 683.148 799.918 666.747C802.26 665.38 804.606 664.019 807.455 662.337Z" fill="black"/>
<path d="M276.924 154.759C290.78 146.647 304.173 138.921 317.397 130.917C329.308 123.708 340.756 124.146 352.659 131.231C387.855 152.177 423.229 172.823 458.527 193.599C475.965 203.863 476.502 218.36 459.228 228.658C423.587 249.907 387.578 270.537 351.896 291.718C339.876 298.852 328.736 298.658 316.758 291.495C282.074 270.756 247.128 250.454 212.293 229.966C210.658 229.005 209.085 227.933 207.518 226.861C193.003 216.926 193.096 203.742 208.181 194.755C230.783 181.288 253.64 168.247 276.924 154.759Z" fill="black"/>
<path d="M281.416 674.18C257.188 659.654 233.39 645.565 209.776 631.174C194.147 621.648 194.257 607.711 210.09 598.266C245.013 577.435 280.219 557.074 315.037 536.071C329.138 527.564 341.983 527.768 356.086 536.39C390.781 557.602 425.961 578.017 460.91 598.813C477.185 608.497 477.847 620.754 461.788 630.44C424.184 653.121 386.243 675.247 348.348 697.443C339.491 702.631 330.269 702.659 321.258 697.424C308.134 689.799 295.034 682.135 281.416 674.18Z" fill="black"/>
<path d="M523.087 802.979C521.301 798.462 521.464 794.379 521.474 790.306C521.561 754.481 521.582 718.657 521.764 682.833C521.8 675.792 522.394 668.751 522.822 661.716C523.56 649.572 534.973 642.082 546.004 647.211C555.078 651.431 563.648 656.77 572.298 661.857C601.301 678.912 630.057 696.398 659.284 713.059C672.928 720.836 679.305 730.781 678.905 747.157C677.931 787.029 678.514 826.941 678.663 866.837C678.693 874.892 677.514 882.075 669.84 886.424C662.124 890.797 655.258 887.861 648.439 883.843C612.204 862.491 575.939 841.191 539.654 819.924C532.762 815.884 526.308 811.496 523.087 802.979Z" fill="black"/>
<path d="M761.708 566.813C779.511 577.321 796.802 587.527 814.08 597.755C831.424 608.023 831.773 621.626 814.521 631.798C778.062 653.293 741.407 674.455 704.835 695.757C694.889 701.551 684.974 702.133 674.812 696.101C637.482 673.944 600.04 651.974 562.757 629.737C547.557 620.671 547.042 608.832 562.049 599.82C599.731 577.191 637.716 555.063 675.74 533.01C685 527.638 694.972 527.4 704.457 532.945C723.428 544.035 742.286 555.319 761.708 566.813Z" fill="black"/>
<path d="M771.312 167.963C786.086 176.659 800.368 185.022 814.557 193.539C817.793 195.481 821.007 197.645 823.719 200.241C831.015 207.223 830.896 216.123 823.489 223.016C815.851 230.124 806.268 234.281 797.439 239.56C770.43 255.708 742.957 271.12 716.427 288.014C700.129 298.391 685.826 299.271 669.024 288.754C636.843 268.611 603.61 250.154 571.005 230.677C548.86 217.448 548.817 205.746 570.744 192.78C605.307 172.343 640.134 152.354 674.649 131.837C686.626 124.718 697.73 124.415 709.753 131.773C729.884 144.092 750.42 155.75 771.312 167.963Z" fill="black"/>
<path d="M678.765 326.644C680.695 332.001 680.338 336.929 680.342 341.795C680.368 382.509 680.287 423.223 680.392 463.936C680.412 471.801 680.211 479.416 672.266 483.759C664.39 488.065 657.544 484.242 650.915 480.331C619.366 461.716 588.07 442.661 556.272 424.483C519.165 403.271 525.437 403.893 524.303 369.932C523.132 334.926 523.729 299.923 523.325 264.922C523.085 244.22 535.495 236.522 553.539 246.828C591.241 268.362 628.558 290.571 665.962 312.624C671.364 315.809 676.186 319.837 678.765 326.644Z" fill="black"/>
<path d="M789.743 270.042C802.874 262.295 815.49 254.851 828.111 247.416C832.585 244.781 837.144 242.509 842.583 242.681C850.643 242.936 856.03 246.619 857.855 254.605C858.633 258.007 859.026 261.573 859.033 265.065C859.114 304.67 858.733 344.281 859.272 383.879C859.47 398.384 853.465 408.108 841.476 415.165C805.716 436.216 770.062 457.448 734.231 478.376C727.1 482.541 719.505 488.039 710.787 482.627C702.205 477.3 702.278 468.184 702.275 459.391C702.262 420.057 702.601 380.719 702.059 341.392C701.872 327.868 707.009 318.591 718.375 311.968C742.042 298.177 765.617 284.231 789.743 270.042Z" fill="black"/>
<path d="M487.328 818.121C450.268 839.742 413.722 861.062 377.147 882.333C373.875 884.235 370.564 886.245 367.015 887.462C358.029 890.544 348.387 884.457 347.037 875.068C346.692 872.668 346.808 870.195 346.792 867.755C346.509 826.545 346.353 785.333 345.895 744.124C345.763 732.228 349.784 723.465 360.478 717.247C398.702 695.022 436.89 672.719 474.641 649.705C490.192 640.225 502.345 652.651 502.375 665.44C502.478 708.576 502.448 751.711 502.328 794.847C502.299 805.365 496.526 812.587 487.328 818.121Z" fill="black"/>
<path d="M502.588 275.869C502.563 311.655 501.77 346.655 502.841 381.598C503.365 398.671 496.283 409.092 482.373 417.089C449.002 436.275 415.843 455.83 382.591 475.223C377.91 477.954 373.371 481.018 368.453 483.231C357.251 488.272 346.912 482.172 346.852 469.866C346.627 423.777 346.829 377.685 346.989 331.595C347.025 321.08 354.645 316.076 362.556 311.467C390.43 295.227 418.319 279.011 446.174 262.737C455.303 257.403 464.188 251.634 473.461 246.569C489.502 237.808 502.467 245.547 502.594 263.672C502.621 267.468 502.591 271.264 502.588 275.869Z" fill="black"/>
<path d="M521.45 430.245C552.262 446.455 581.017 464.941 610.686 481.853C619.871 487.088 629.037 492.381 637.955 498.051C652.179 507.094 652.353 519.611 637.93 528.678C621.874 538.773 605.278 548.012 588.918 557.625C569.052 569.298 549.046 580.743 529.372 592.732C517.092 600.215 506.032 599.613 493.711 592.086C460.635 571.878 427.075 552.458 393.64 532.842C370.529 519.283 370.537 508.374 393.715 494.826C427.418 475.127 461.054 455.312 494.735 435.574C502.802 430.846 511.019 426.635 521.45 430.245Z" fill="black"/>
</g>
<defs>
<clipPath id="clip0_595_36">
<rect width="694" height="772" fill="white" transform="translate(165 126)"/>
</clipPath>
</defs>
</svg>
